<?xml version="1.0" encoding="UTF-8" standalone="no"?>
<!-- Created with Inkscape (http://www.inkscape.org/) -->

<svg
   width="2316.3342"
   height="512.01123"
   viewBox="0 0 2316.3342 512.01123"
   version="1.1"
   id="svg1"
   xml:space="preserve"
   xmlns="http://www.w3.org/2000/svg"
   xmlns:svg="http://www.w3.org/2000/svg"><defs
     id="defs1" /><g
     id="layer5"
     style="display:inline"
     transform="translate(367.66798)"><g
       id="layer1"
       style="display:inline"><path
         style="display:inline;fill:#ffd42a;stroke:#000000;stroke-width:20.7379;stroke-linecap:round;stroke-linejoin:round;stroke-dasharray:none;stroke-opacity:1"
         d="m 187.66581,477.11982 c -7.74998,-13.48735 -17.0957,-29.84743 -20.76827,-36.35577 -3.67258,-6.50833 -11.40067,-19.784 -17.17356,-29.50153 -5.77288,-9.71754 -13.9999,-24.08997 -18.28222,-31.93871 -4.28235,-7.84879 -9.75999,-17.32845 -12.17257,-21.06597 -2.41257,-3.7375 -9.12987,-15.35775 -14.9273,-25.82279 C 98.54445,321.97001 91.669,310.04398 89.06313,305.9327 84.17139,298.21505 62.98796,261.1994 55.22943,246.81212 44.921233,227.69677 38.345077,199.08833 38.345077,173.35956 c 0,-34.88478 9.369943,-64.17294 29.914863,-93.506644 11.33227,-16.18002 16.1383,-21.302064 33.28145,-35.46978 39.3208,-32.496152 100.18675,-42.6959732 152.89967,-25.622685 30.79013,9.972677 60.53786,31.83199 79.19409,58.193639 20.71652,29.27285 29.87071,54.88518 31.80336,88.98198 1.61693,28.5269 -7.00756,66.21269 -19.75282,86.31242 -1.89598,2.99 -8.1812,13.99866 -13.96718,24.4637 -5.78598,10.46501 -13.35416,23.61425 -16.8182,29.22051 -3.464,5.60628 -11.36813,19.06131 -17.5647,29.90009 -19.87787,34.76938 -28.19543,49.18647 -39.59679,68.63426 -6.13518,10.46502 -14.64547,25.44903 -18.91181,33.29779 -4.2663,7.84878 -8.54964,15.18787 -9.51851,16.30913 -1.78314,2.06361 -9.65198,15.8915 -20.68842,36.35578 -3.32581,6.16688 -6.23065,11.21252 -6.45519,11.21252 -0.22452,0 -6.74911,-11.0351 -14.49908,-24.52245 z m 42.40958,-222.62669 c 18.48157,-5.96746 38.73634,-23.4045 46.78901,-40.28008 7.25952,-15.21338 9.32347,-24.08903 9.32786,-40.11248 0.005,-16.75474 -2.51122,-27.49845 -9.70666,-41.45237 -9.63035,-18.67591 -32.49548,-36.47797 -54.07045,-42.09753 -9.36787,-2.44003 -28.72577,-2.709316 -38.91987,-0.541426 -9.4387,2.007261 -28.54511,11.745726 -37.10222,18.910896 -19.89388,16.65784 -30.53195,42.49459 -28.7961,69.93726 1.47903,23.38229 8.82431,39.96147 24.46273,55.21531 12.02636,11.73063 20.21172,16.6983 34.91299,21.18863 8.84434,2.70141 12.44132,3.04738 27.1819,2.61462 12.52465,-0.36771 19.33573,-1.25661 25.92081,-3.38283 z"
         id="path13" /><path
         style="display:inline;fill:#ffd42a;stroke-width:0.588769"
         d="m 179.9185,273.21795 c -11.59881,-2.48647 -26.07895,-8.53021 -34.59803,-14.44055 -6.42558,-4.45792 -15.71147,-12.80227 -21.50872,-19.32789 -15.16699,-17.07251 -22.43199,-35.07196 -24.38722,-60.42084 -2.13387,-27.66423 6.17657,-54.26228 23.47638,-75.13754 9.31803,-11.243842 23.38376,-21.126834 41.37996,-29.074747 13.29092,-5.869852 16.99932,-6.661144 33.28458,-7.102215 17.71316,-0.479723 28.24058,0.928059 39.10088,5.228808 20.53786,8.133132 40.35517,23.617097 52.02804,40.651384 3.57123,5.21151 9.71911,17.89029 11.77938,24.29259 3.83103,11.905 4.7437,19.85363 4.34395,37.83211 -0.27025,12.15388 -0.50225,14.78745 -1.7764,20.16608 -2.72093,11.48586 -9.11943,26.31655 -15.0037,34.77606 -9.45955,13.59949 -24.0531,26.33437 -38.9884,34.02273 -14.81785,7.62789 -25.25012,9.5421 -51.51722,9.4529 -9.588,-0.0326 -14.7305,-0.30084 -17.61348,-0.91888 z"
         id="path17" /></g><g
       id="layer6"
       style="display:inline"><circle
         style="fill:#000000;stroke-width:1.11382"
         id="path18"
         cx="202"
         cy="344.71982"
         r="35.642384" /><path
         style="fill:#000000"
         d="m 256.0023,288 h 0.002 a 23.005319,23.005319 140.45383 0 0 22.58969,-18.6521 L 305.83146,128.00972 A 26.916416,26.916416 50.453831 0 0 279.40133,96 h -46.86455 a 27.14178,27.14178 129.83445 0 0 -26.70175,32.00929 l 25.3985,139.32891 A 25.176944,25.176944 39.834448 0 0 256.0023,288 Z"
         id="path19"
         transform="matrix(1.1138245,0,0,1.1138245,-82.979097,-25.0699)" /></g></g><g
     id="layer2"
     style="display:inline;fill:#fbfcf8;fill-opacity:1"
     transform="translate(313.21451)"><path
       d="M 61.28532,155.50659 C 57.718655,64.913296 -9.3346475,-7.8125e-6 -129.17459,-7.8125e-6 c -115.55995,0 -173.33992,60.6333058125 -173.33992,145.5199378125 0,59.91997 28.53332,94.15995 79.17996,116.98661 33.52665,14.97999 71.3333,23.53999 129.826608,36.37998 59.206639,12.84 73.473299,32.09999 73.473299,59.91998 0,42.08664 -33.526651,67.0533 -92.019957,67.0533 -63.48664,0 -104.14662,-29.95999 -105.57329,-78.46663 h -95.58662 c 2.14,106.28662 83.45996,158.35992 200.44658,158.35992 110.5666126,0 189.033243,-46.36664 189.033243,-150.51326 0,-67.0533 -32.813318,-96.29996 -74.1866323,-114.84661 C -32.874637,224.69989 -84.947946,211.8599 -138.44792,199.0199 c -52.78664,-12.83999 -73.4733,-29.95998 -73.4733,-59.91997 0,-35.66665 29.24665,-55.639976 84.88663,-55.639976 59.919969,0 89.166622,23.539986 94.159953,72.046636 z"
       id="text1"
       style="font-size:713.333px;font-family:Coolvetica;-inkscape-font-specification:Coolvetica;display:none;fill:#fbfcf8;fill-opacity:1;stroke:#000000;stroke-width:0;stroke-linecap:round;stroke-linejoin:round"
       aria-label="S" /><path
       d="M 811.14146,155.50659 C 807.5748,64.913296 740.52149,-7.8125e-6 620.68155,-7.8125e-6 505.1216,-7.8125e-6 447.34163,60.633298 447.34163,145.51993 c 0,59.91997 28.53332,94.15995 79.17996,116.98661 33.52665,14.97999 71.3333,23.53999 129.82661,36.37998 59.20664,12.84 73.4733,32.09999 73.4733,59.91998 0,42.08664 -33.52665,67.0533 -92.01996,67.0533 -63.48664,0 -104.14662,-29.95999 -105.57329,-78.46663 h -95.58662 c 2.14,106.28662 83.45996,158.35992 200.44658,158.35992 110.56661,0 189.03324,-46.36664 189.03324,-150.51326 0,-67.0533 -32.81331,-96.29996 -74.18663,-114.84661 -34.95332,-15.69333 -87.02663,-28.53332 -140.5266,-41.37332 -52.78664,-12.83999 -73.4733,-29.95998 -73.4733,-59.91997 0,-35.66665 29.24665,-55.639976 84.88663,-55.639976 59.91997,0 89.16662,23.539986 94.15995,72.046636 z M 1074.3611,97.726614 c 49.22,0 69.1934,26.393326 69.1934,63.486636 0,36.37999 -19.9734,62.77331 -72.76,62.77331 H 946.67454 V 97.726614 Z M 1223.4477,489.34644 V 355.23983 c 0,-55.63997 -15.6933,-79.17996 -57.7799,-92.73329 45.6533,-16.40666 70.6199,-59.20664 70.6199,-109.85328 0,-78.466635 -57.7799,-136.959942 -145.5199,-136.959942 H 850.37459 V 489.34644 h 96.29995 V 303.87985 h 105.57326 c 57.0667,0 74.1867,17.83333 74.1867,63.48664 v 121.97995 z m 398.7525,0 v -84.1733 H 1358.9804 V 283.1932 h 231.8332 V 199.73323 H 1358.9804 V 98.439947 h 251.8065 V 15.693318 H 1262.6804 V 489.34644 Z M 1741.3266,236.82655 V 97.726614 h 94.16 c 57.0666,0 80.6066,29.246656 80.6066,68.479966 0,41.37332 -23.54,70.61997 -80.6066,70.61997 z m 0,252.51989 V 317.43318 h 109.8533 c 92.7333,0 151.9399,-62.05997 151.9399,-148.37326 0,-85.599966 -59.2066,-153.366602 -151.9399,-153.366602 H 1642.1733 V 489.34644 Z"
       id="text2"
       style="font-size:713.333px;font-family:Coolvetica;-inkscape-font-specification:Coolvetica;display:none;fill:#fbfcf8;fill-opacity:1;stroke:#000000;stroke-width:0;stroke-linecap:round;stroke-linejoin:round"
       aria-label="SREP" /><path
       style="display:inline;fill:#fbfcf8;fill-opacity:1;stroke:#000000;stroke-width:0;stroke-linecap:round;stroke-linejoin:round"
       d="M 1957.2716,251.25183 V 16.014201 l 123.0366,1.892395 c 115.4787,1.776148 124.6862,2.704792 149.8915,15.117621 89.5952,44.122892 110.5388,169.645683 40.1818,240.824243 -29.9701,30.31999 -59.2241,38.93365 -141.9901,41.80811 l -74.9533,2.60314 v 84.11487 84.11489 h -48.0833 -48.0832 z m 251.3551,-30.26608 c 33.0572,-31.0923 29.286,-87.1079 -7.5327,-111.88451 -17.2181,-11.58665 -25.9141,-12.934718 -83.4386,-12.934718 h -64.2173 v 71.172038 71.17203 l 70.2722,-1.87557 c 65.3572,-1.74439 71.2964,-2.83892 84.9164,-15.64927 z"
       id="path7"
       transform="translate(-313.21451)" /><path
       style="fill:#fbfcf8;fill-opacity:1;stroke:#000000;stroke-width:0;stroke-linecap:round;stroke-linejoin:round"
       d="M 132.93608,495.87047 C 57.93986,476.27699 5.6568543,423.60294 5.6568543,367.63926 v -17.3902 l 43.4504037,1.65217 c 42.564362,1.61847 43.538936,1.98446 47.79177,17.94785 6.535412,24.53125 26.517322,42.35579 57.944842,51.68875 50.15319,14.8939 95.82448,7.48662 123.31043,-19.99933 21.06869,-21.06869 22.68943,-59.54758 3.2742,-77.73492 C 265.15553,308.55977 252.87775,304.0597 178.95895,286.24623 70.50762,260.11088 29.121055,231.06266 16.97457,172.55336 -0.57127163,88.03549 55.417446,17.606234 148.8126,6.7118361 265.06525,-6.848854 352.22318,43.546887 369.55949,134.35029 l 3.51005,18.38477 h -44.66395 c -44.53924,0 -44.67386,-0.0452 -48.21669,-16.17553 C 269.29654,86.966939 177.81565,62.714539 123.24256,94.951662 c -20.0633,11.851678 -29.737152,42.358388 -19.82848,62.529548 11.56291,23.53872 32.011,33.63693 111.25129,54.94102 137.45825,36.95625 170.00072,64.61906 170.00072,144.50954 0,88.64461 -60.51544,139.18567 -172.53406,144.09635 -31.01815,1.35978 -61.96365,-0.65555 -79.19595,-5.15765 z"
       id="path8"
       transform="translate(-313.21451)" /><path
       style="fill:#fbfcf8;fill-opacity:1;stroke:#000000;stroke-width:0;stroke-linecap:round;stroke-linejoin:round"
       d="M 1578.2623,251.73001 V 16.970563 h 172.5341 172.534 v 39.59798 39.597979 H 1796.0512 1668.772 v 53.740118 53.74011 h 115.9655 115.9655 v 39.59798 39.59798 H 1784.7375 1668.772 v 62.2254 62.2254 h 132.9361 132.9361 v 39.59798 39.59798 h -178.191 -178.1909 z"
       id="path9"
       transform="translate(-313.21451)" /><path
       style="fill:#fbfcf8;fill-opacity:1;stroke:#000000;stroke-width:0;stroke-linecap:round;stroke-linejoin:round"
       d="M 1165.312,251.29478 V 16.100096 l 140.0071,1.849447 140.0072,1.849447 30.922,16.970563 c 45.876,25.177575 64.5644,54.898973 66.9169,106.422507 2.2731,49.7848 -12.5519,83.99361 -45.6466,105.32952 l -21.3468,13.76212 19.7721,11.29971 c 31.9646,18.26765 37.0636,36.19663 37.0636,130.32237 v 82.58369 h -45.2548 -45.2549 v -70.9916 c 0,-109.49751 -6.487,-115.59527 -123.0365,-115.65305 l -63.6397,-0.0315 v 93.33809 93.3381 h -45.2548 -45.2548 z m 275.0267,-42.90173 c 11.0929,-11.10464 15.7588,-22.56638 17.7895,-43.70009 2.5796,-26.84704 1.4995,-29.90051 -17.1869,-48.58692 l -19.9395,-19.939518 h -82.5901 -82.5901 v 65.461368 65.46138 l 84.7401,-1.82177 c 83.1201,-1.78693 85.0276,-2.10953 99.777,-16.87445 z"
       id="path10"
       transform="translate(-313.21451)" /><path
       style="fill:#fbfcf8;fill-opacity:1;stroke:#000000;stroke-width:0;stroke-linecap:round;stroke-linejoin:round"
       d="M 888.38239,497.28068 C 824.20423,484.70015 776.2617,445.75164 760.68441,393.53886 c -13.04174,-43.71399 -13.80872,-42.8139 36.48257,-42.8139 44.69483,0 44.81414,0.0399 48.35812,16.17554 3.74718,17.06081 24.59264,39.60368 48.25787,52.18741 20.99033,11.16137 94.68794,9.73537 117.28393,-2.26938 36.7954,-19.54849 46.736,-66.99269 19.701,-94.02771 -12.4441,-12.4441 -29.3223,-18.99538 -80.4084,-31.21058 C 866.0312,271.41651 829.51926,257.38992 804.75007,235.64228 732.89673,172.5542 759.42923,51.850822 852.83211,16.904324 876.46144,8.0634588 897.91497,4.8487325 933.28528,4.8487325 c 92.94072,0 154.71162,35.8129055 178.61202,103.5537775 15.147,42.9313 13.9969,44.33255 -36.3879,44.33255 h -44.5477 l -3.4231,-17.11519 c -14.8493,-74.246531 -179.01046,-74.008649 -179.01046,0.25939 0,39.00805 14.55573,48.56864 116.46908,76.49999 89.87038,24.63074 122.81288,39.00072 143.54938,62.61823 40.9231,46.60884 34.8444,138.52263 -11.9806,181.15512 -43.0008,39.1507 -130.29489,56.39623 -208.18361,41.12808 z"
       id="path11"
       transform="translate(-313.21451)" /></g></svg>
